<svg width="46" height="63" viewBox="0 0 46 63" fill="none" xmlns="http://www.w3.org/2000/svg">
<path d="M45.077 20.1965V45.8966C30.9451 44.7649 26.6218 31.3568 26.2266 24.7942V0.272949C39.9791 1.02745 44.5238 13.8697 45.077 20.1965Z" fill="#FA966B"/>
<ellipse cx="10.6546" cy="32.6433" rx="10.6546" ry="10.7912" fill="#73C7B7"/>
<path d="M23.4953 12.6882C21.2265 13.4466 20.0291 17.1124 19.714 18.8505H0.571456C0.453292 16.7964 0.571455 11.1457 5.41618 6.5259C11.1826 1.02723 19.8716 -0.110421 23.4953 0.00808454V12.6882Z" fill="#4472A3"/>
<path d="M0.273438 57.2876C0.273438 56.3085 0.471595 55.4517 0.867911 54.7174C1.26423 53.9714 1.80625 53.3944 2.49397 52.9864C3.19335 52.5785 3.9685 52.3745 4.81941 52.3745C5.65866 52.3745 6.38719 52.5551 7.00497 52.9165C7.62276 53.2778 8.08318 53.7324 8.38625 54.2803V52.5318H9.99482V62.1133H8.38625V60.3299C8.07153 60.8894 7.59944 61.3557 6.97 61.7287C6.35222 62.09 5.62952 62.2707 4.80192 62.2707C3.95101 62.2707 3.18169 62.0609 2.49397 61.6413C1.80625 61.2216 1.26423 60.633 0.867911 59.8753C0.471595 59.1177 0.273438 58.2551 0.273438 57.2876ZM8.38625 57.3051C8.38625 56.5824 8.24054 55.953 7.94914 55.4168C7.65773 54.8806 7.26141 54.4726 6.76019 54.1929C6.27062 53.9015 5.7286 53.7557 5.13413 53.7557C4.53966 53.7557 3.99764 53.8956 3.50807 54.1754C3.0185 54.4551 2.62802 54.8631 2.33661 55.3993C2.0452 55.9355 1.8995 56.5649 1.8995 57.2876C1.8995 58.022 2.0452 58.6631 2.33661 59.2109C2.62802 59.7471 3.0185 60.1609 3.50807 60.4523C3.99764 60.7321 4.53966 60.8719 5.13413 60.8719C5.7286 60.8719 6.27062 60.7321 6.76019 60.4523C7.26141 60.1609 7.65773 59.7471 7.94914 59.2109C8.24054 58.6631 8.38625 58.0278 8.38625 57.3051Z" fill="black"/>
<path d="M14.6244 49.1748V62.1133H13.0333V49.1748H14.6244Z" fill="black"/>
<path d="M19.6266 53.8432V59.4907C19.6266 59.9569 19.7257 60.2891 19.9238 60.4873C20.122 60.6738 20.4659 60.767 20.9554 60.767H22.1269V62.1133H20.6932C19.8073 62.1133 19.1429 61.9094 18.6999 61.5014C18.257 61.0934 18.0355 60.4232 18.0355 59.4907V53.8432H16.7941V52.5318H18.0355V50.119H19.6266V52.5318H22.1269V53.8432H19.6266Z" fill="black"/>
<path d="M33.1466 56.9554C33.1466 57.2585 33.1291 57.579 33.0942 57.9171H25.436C25.4942 58.8612 25.8148 59.6014 26.3976 60.1376C26.9921 60.6621 27.7089 60.9244 28.5482 60.9244C29.2359 60.9244 29.8071 60.767 30.2617 60.4523C30.7279 60.1259 31.0543 59.6947 31.2408 59.1585H32.9543C32.6979 60.0793 32.185 60.8311 31.4157 61.414C30.6463 61.9851 29.6905 62.2707 28.5482 62.2707C27.639 62.2707 26.8231 62.0667 26.1004 61.6587C25.3893 61.2508 24.8298 60.6738 24.4219 59.9278C24.0139 59.1701 23.8099 58.2959 23.8099 57.3051C23.8099 56.3143 24.0081 55.4459 24.4044 54.6999C24.8007 53.9539 25.3544 53.3827 26.0654 52.9864C26.7881 52.5785 27.6157 52.3745 28.5482 52.3745C29.4574 52.3745 30.2617 52.5726 30.9611 52.9689C31.6604 53.3653 32.1966 53.9131 32.5696 54.6125C32.9543 55.3002 33.1466 56.0812 33.1466 56.9554ZM31.5031 56.6232C31.5031 56.0171 31.369 55.4984 31.1009 55.0671C30.8328 54.6241 30.4657 54.2919 29.9994 54.0705C29.5448 53.8373 29.0378 53.7208 28.4783 53.7208C27.674 53.7208 26.9863 53.9772 26.4151 54.4901C25.8556 55.003 25.535 55.714 25.4534 56.6232H31.5031Z" fill="black"/>
<path d="M44.3388 56.9554C44.3388 57.2585 44.3213 57.579 44.2863 57.9171H36.6281C36.6864 58.8612 37.0069 59.6014 37.5897 60.1376C38.1842 60.6621 38.9011 60.9244 39.7403 60.9244C40.4281 60.9244 40.9992 60.767 41.4538 60.4523C41.9201 60.1259 42.2465 59.6947 42.433 59.1585H44.1464C43.89 60.0793 43.3771 60.8311 42.6078 61.414C41.8385 61.9851 40.8827 62.2707 39.7403 62.2707C38.8311 62.2707 38.0152 62.0667 37.2925 61.6587C36.5815 61.2508 36.022 60.6738 35.614 59.9278C35.206 59.1701 35.002 58.2959 35.002 57.3051C35.002 56.3143 35.2002 55.4459 35.5965 54.6999C35.9928 53.9539 36.5465 53.3827 37.2575 52.9864C37.9802 52.5785 38.8078 52.3745 39.7403 52.3745C40.6495 52.3745 41.4538 52.5726 42.1532 52.9689C42.8526 53.3653 43.3888 53.9131 43.7618 54.6125C44.1464 55.3002 44.3388 56.0812 44.3388 56.9554ZM42.6952 56.6232C42.6952 56.0171 42.5612 55.4984 42.2931 55.0671C42.025 54.6241 41.6578 54.2919 41.1915 54.0705C40.737 53.8373 40.2299 53.7208 39.6704 53.7208C38.8661 53.7208 38.1784 53.9772 37.6072 54.4901C37.0477 55.003 36.7272 55.714 36.6456 56.6232H42.6952Z" fill="black"/>
</svg>
