<svg width="87" height="120" viewBox="0 0 87 120" fill="none" xmlns="http://www.w3.org/2000/svg">
<path d="M86.867 38.9191V88.4448C59.6339 86.2639 51.3026 60.4257 50.541 47.7792V0.525391C77.043 1.97936 85.8008 26.727 86.867 38.9191Z" fill="#FA966B"/>
<ellipse cx="20.5321" cy="62.9105" rx="20.5321" ry="20.7953" fill="#73C7B7"/>
<path d="M45.2757 24.4509C40.9037 25.9124 38.5962 32.9766 37.989 36.326H1.1001C0.872394 32.3676 1.1001 21.4784 10.4362 12.5758C21.5484 1.97954 38.2926 -0.212788 45.2757 0.0155794V24.4509Z" fill="#4472A3"/>
<!-- <path d="M0.526367 110.397C0.526367 108.51 0.908229 106.859 1.67195 105.444C2.43568 104.006 3.48018 102.894 4.80546 102.108C6.15321 101.322 7.64696 100.929 9.28672 100.929C10.904 100.929 12.3079 101.277 13.4984 101.973C14.6889 102.669 15.5762 103.546 16.1602 104.601V101.232H19.26V119.696H16.1602V116.259C15.5537 117.337 14.644 118.236 13.431 118.955C12.2405 119.651 10.8479 119.999 9.25303 119.999C7.61327 119.999 6.13075 119.595 4.80546 118.786C3.48018 117.978 2.43568 116.843 1.67195 115.383C0.908229 113.923 0.526367 112.261 0.526367 110.397ZM16.1602 110.43C16.1602 109.038 15.8794 107.825 15.3179 106.791C14.7563 105.758 13.9926 104.972 13.0267 104.433C12.0833 103.871 11.0388 103.59 9.89321 103.59C8.74762 103.59 7.70312 103.86 6.7597 104.399C5.81627 104.938 5.06378 105.724 4.50222 106.758C3.94066 107.791 3.65988 109.004 3.65988 110.397C3.65988 111.812 3.94066 113.047 4.50222 114.103C5.06378 115.136 5.81627 115.934 6.7597 116.495C7.70312 117.034 8.74762 117.304 9.89321 117.304C11.0388 117.304 12.0833 117.034 13.0267 116.495C13.9926 115.934 14.7563 115.136 15.3179 114.103C15.8794 113.047 16.1602 111.823 16.1602 110.43Z" fill="black"/>
<path d="M28.1815 94.7627V119.696H25.1154V94.7627H28.1815Z" fill="black"/>
<path d="M37.821 103.759V114.642C37.821 115.54 38.012 116.181 38.3938 116.562C38.7757 116.922 39.4383 117.102 40.3818 117.102H42.6392V119.696H39.8764C38.1692 119.696 36.8889 119.303 36.0353 118.517C35.1817 117.731 34.7549 116.439 34.7549 114.642V103.759H32.3627V101.232H34.7549V96.5822H37.821V101.232H42.6392V103.759H37.821Z" fill="black"/>
<path d="M63.8749 109.756C63.8749 110.34 63.8412 110.958 63.7739 111.61H49.016C49.1283 113.429 49.7461 114.855 50.8692 115.889C52.0148 116.899 53.3962 117.405 55.0135 117.405C56.3388 117.405 57.4394 117.102 58.3155 116.495C59.214 115.866 59.8429 115.035 60.2023 114.002H63.5043C63.0101 115.776 62.0218 117.225 60.5393 118.348C59.0567 119.449 57.2148 119.999 55.0135 119.999C53.2614 119.999 51.6891 119.606 50.2964 118.82C48.9262 118.034 47.848 116.922 47.0618 115.484C46.2756 114.024 45.8825 112.34 45.8825 110.43C45.8825 108.521 46.2644 106.847 47.0281 105.41C47.7918 103.972 48.8588 102.872 50.229 102.108C51.6217 101.322 53.2165 100.929 55.0135 100.929C56.7656 100.929 58.3155 101.31 59.6632 102.074C61.011 102.838 62.0443 103.894 62.763 105.241C63.5043 106.567 63.8749 108.072 63.8749 109.756ZM60.7077 109.116C60.7077 107.948 60.4494 106.949 59.9328 106.117C59.4161 105.264 58.7086 104.624 57.8101 104.197C56.934 103.748 55.9569 103.523 54.8787 103.523C53.3288 103.523 52.0035 104.017 50.9029 105.006C49.8247 105.994 49.207 107.364 49.0497 109.116H60.7077Z" fill="black"/>
<path d="M85.4428 109.756C85.4428 110.34 85.4091 110.958 85.3418 111.61H70.5839C70.6962 113.429 71.314 114.855 72.4371 115.889C73.5827 116.899 74.9641 117.405 76.5814 117.405C77.9067 117.405 79.0073 117.102 79.8834 116.495C80.7819 115.866 81.4108 115.035 81.7702 114.002H85.0722C84.578 115.776 83.5897 117.225 82.1072 118.348C80.6246 119.449 78.7827 119.999 76.5814 119.999C74.8293 119.999 73.257 119.606 71.8643 118.82C70.4941 118.034 69.4159 116.922 68.6297 115.484C67.8435 114.024 67.4504 112.34 67.4504 110.43C67.4504 108.521 67.8323 106.847 68.596 105.41C69.3597 103.972 70.4267 102.872 71.7969 102.108C73.1896 101.322 74.7844 100.929 76.5814 100.929C78.3335 100.929 79.8834 101.31 81.2311 102.074C82.5789 102.838 83.6121 103.894 84.3309 105.241C85.0722 106.567 85.4428 108.072 85.4428 109.756ZM82.2756 109.116C82.2756 107.948 82.0173 106.949 81.5007 106.117C80.984 105.264 80.2765 104.624 79.378 104.197C78.5019 103.748 77.5248 103.523 76.4466 103.523C74.8967 103.523 73.5714 104.017 72.4708 105.006C71.3926 105.994 70.7749 107.364 70.6176 109.116H82.2756Z" fill="black"/> -->
</svg>
